<svg width="29" height="29" viewBox="0 0 29 29" fill="none" xmlns="http://www.w3.org/2000/svg">
<path fill-rule="evenodd" clip-rule="evenodd" d="M16.4078 8.20859C16.4078 7.97659 16.2194 7.78809 15.9871 7.78809H5.01214C4.77986 7.78809 4.5914 7.97659 4.5914 8.20859C4.5914 8.44059 4.77986 8.62909 5.01214 8.62909H15.9871C16.2194 8.62909 16.4078 8.44059 16.4078 8.20859Z" fill="#757575"/>
<path fill-rule="evenodd" clip-rule="evenodd" d="M23.5455 8.20859C23.5455 7.97659 23.357 7.78809 23.1247 7.78809H20.461C20.2287 7.78809 20.0402 7.97659 20.0402 8.20859C20.0402 8.44059 20.2287 8.62909 20.461 8.62909H23.1247C23.357 8.62909 23.5455 8.44059 23.5455 8.20859Z" fill="#757575"/>
<path fill-rule="evenodd" clip-rule="evenodd" d="M18.2481 5.82956C19.4965 5.82956 20.5093 6.84311 20.5093 8.09083C20.5093 9.33928 19.4965 10.3521 18.2481 10.3521C17.0003 10.3521 15.9868 9.33928 15.9868 8.09083C15.9868 6.84311 17.0003 5.82956 18.2481 5.82956ZM18.2481 6.66041C19.0376 6.66041 19.6792 7.30131 19.6792 8.09083C19.6792 8.88036 19.0376 9.52126 18.2481 9.52126C17.4593 9.52126 16.8176 8.88036 16.8176 8.09083C16.8176 7.30131 17.4593 6.66041 18.2481 6.66041Z" fill="#757575"/>
<path fill-rule="evenodd" clip-rule="evenodd" d="M16.4078 19.4854C16.4078 19.2534 16.2194 19.0649 15.9871 19.0649H5.01214C4.77986 19.0649 4.5914 19.2534 4.5914 19.4854C4.5914 19.7174 4.77986 19.9059 5.01214 19.9059H15.9871C16.2194 19.9059 16.4078 19.7174 16.4078 19.4854Z" fill="#757575"/>
<path fill-rule="evenodd" clip-rule="evenodd" d="M23.5455 19.4854C23.5455 19.2534 23.357 19.0649 23.1247 19.0649H20.461C20.2287 19.0649 20.0402 19.2534 20.0402 19.4854C20.0402 19.7174 20.2287 19.9059 20.461 19.9059H23.1247C23.357 19.9059 23.5455 19.7174 23.5455 19.4854Z" fill="#757575"/>
<path fill-rule="evenodd" clip-rule="evenodd" d="M18.2481 17.2241C19.4965 17.2241 20.5093 18.2376 20.5093 19.4853C20.5093 20.7338 19.4965 21.7466 18.2481 21.7466C17.0003 21.7466 15.9868 20.7338 15.9868 19.4853C15.9868 18.2376 17.0003 17.2241 18.2481 17.2241ZM18.2481 18.0549C19.0376 18.0549 19.6792 18.6958 19.6792 19.4853C19.6792 20.2749 19.0376 20.9158 18.2481 20.9158C17.4593 20.9158 16.8176 20.2749 16.8176 19.4853C16.8176 18.6958 17.4593 18.0549 18.2481 18.0549Z" fill="#757575"/>
<path fill-rule="evenodd" clip-rule="evenodd" d="M12.1496 13.7883C12.1496 14.0203 12.3381 14.2088 12.5704 14.2088L23.5453 14.2088C23.7776 14.2088 23.966 14.0203 23.966 13.7883C23.966 13.5563 23.7776 13.3678 23.5453 13.3678L12.5704 13.3678C12.3381 13.3678 12.1496 13.5563 12.1496 13.7883Z" fill="#757575"/>
<path fill-rule="evenodd" clip-rule="evenodd" d="M5.01196 13.7883C5.01196 14.0203 5.20048 14.2088 5.43277 14.2088H8.0965C8.32879 14.2088 8.5173 14.0203 8.5173 13.7883C8.5173 13.5563 8.32879 13.3678 8.0965 13.3678H5.43277C5.20048 13.3678 5.01196 13.5563 5.01196 13.7883Z" fill="#757575"/>
<path fill-rule="evenodd" clip-rule="evenodd" d="M10.3094 16.0497C9.06092 16.0497 8.0481 15.0361 8.0481 13.7884C8.0481 12.5399 9.06092 11.5271 10.3094 11.5271C11.5571 11.5271 12.5706 12.5399 12.5706 13.7884C12.5706 15.0361 11.5571 16.0497 10.3094 16.0497ZM10.3094 15.2188C9.51985 15.2188 8.87822 14.5779 8.87822 13.7884C8.87822 12.9989 9.51985 12.358 10.3094 12.358C11.0982 12.358 11.7398 12.9989 11.7398 13.7884C11.7398 14.5779 11.0982 15.2188 10.3094 15.2188Z" fill="#757575"/>
</svg>
