<svg width="38" height="52" viewBox="0 0 38 52" fill="none" xmlns="http://www.w3.org/2000/svg">
<path d="M30.1537 13.5034C29.7867 12.9182 29.0591 12.6401 28.3752 12.8238C27.6909 13.0075 27.2179 13.6074 27.2179 14.2913C27.2179 16.1508 25.647 17.6631 23.7164 17.6631C21.7854 17.6631 20.215 16.1508 20.215 14.2913V1.5234C20.215 0.907278 19.8293 0.351858 19.2381 0.115804C18.6469 -0.119852 17.9663 0.0106715 17.514 0.446279C17.3368 0.617269 13.1176 4.70318 8.84369 10.8771C6.32356 14.5174 4.31224 18.1285 2.86617 21.6098C1.03447 26.0198 0.105438 30.2422 0.105438 34.1587C0.105438 43.9964 8.41687 52 18.6325 52C28.8486 52 37.16 43.9964 37.16 34.1587C37.16 27.8618 34.8026 20.9123 30.1537 13.5034ZM18.6325 48.9531C10.1616 48.9531 3.2695 42.3162 3.2695 34.1587C3.2695 26.1289 7.71361 18.0122 11.4421 12.6167C13.4629 9.69243 15.4993 7.22796 17.0505 5.47521V14.2913C17.0505 17.8305 20.0407 20.71 23.716 20.71C25.963 20.71 27.9541 19.6341 29.1621 17.9888C32.3715 23.8084 33.9959 29.2365 33.9959 34.1587C33.9959 42.3162 27.1042 48.9531 18.6325 48.9531Z" fill="#2F2E41"/>
<path d="M27.6072 25.7123H20.8292C19.9554 25.7123 19.2472 26.3943 19.2472 27.2354C19.2468 28.0768 19.9554 28.7592 20.8288 28.7592H23.7881L17.0291 35.2675L13.355 31.7295C12.7374 31.1348 11.7354 31.1348 11.1179 31.7295L7.52286 35.191C6.90488 35.7861 6.90488 36.7505 7.52245 37.3456C8.14043 37.9407 9.14197 37.9403 9.75995 37.3456L12.2364 34.9613L15.9101 38.4993C16.2067 38.7849 16.6092 38.9456 17.0291 38.9456C17.4485 38.9456 17.851 38.7849 18.1476 38.4993L26.0252 30.9138V33.7628C26.0252 34.6038 26.7334 35.2862 27.6072 35.2862C28.4811 35.2862 29.1893 34.6038 29.1893 33.7628V27.2358C29.1893 26.3943 28.4811 25.7123 27.6072 25.7123Z" fill="#2F2E41"/>
</svg>
