<svg width="698" height="632" viewBox="0 0 698 632" fill="none" xmlns="http://www.w3.org/2000/svg">
<g clip-path="url(#clip0)">
<path d="M635.911 506.332L579.25 423.871C579.25 423.871 665.059 453.221 655.32 506.332H635.911Z" fill="#E5E5E5"/>
<path d="M105.843 506.482L103.692 506.441C104.524 483.008 107.076 459.664 111.328 436.59C120.629 387.189 136.096 354.745 157.298 340.159L158.533 341.884C109.004 375.956 105.868 505.18 105.843 506.482Z" fill="#E5E5E5"/>
<path d="M642.544 508.354L640.393 508.313C640.44 505.979 641.784 450.974 663.885 435.771L665.12 437.495C643.911 452.085 642.555 507.794 642.544 508.354Z" fill="#E5E5E5"/>
<path d="M170.77 342.075C176.71 342.075 181.525 337.357 181.525 331.538C181.525 325.718 176.71 321 170.77 321C164.83 321 160.015 325.718 160.015 331.538C160.015 337.357 164.83 342.075 170.77 342.075Z" fill="#05386B"/>
<path d="M675.258 435.075C681.198 435.075 686.013 430.357 686.013 424.538C686.013 418.718 681.198 414 675.258 414C669.318 414 664.503 418.718 664.503 424.538C664.503 430.357 669.318 435.075 675.258 435.075Z" fill="#05386B"/>
<path d="M127.717 348.392C129.738 361.041 124.47 372.355 124.47 372.355C124.47 372.355 115.925 363.16 113.904 350.511C111.883 337.861 117.151 326.548 117.151 326.548C117.151 326.548 125.696 335.743 127.717 348.392Z" fill="#E5E5E5"/>
<path d="M162.872 379.113C150.512 383.267 138.223 380.156 138.223 380.156C138.223 380.156 145.975 370.309 158.336 366.155C170.697 362.001 182.985 365.112 182.985 365.112C182.985 365.112 175.233 374.959 162.872 379.113Z" fill="#E5E5E5"/>
<path d="M673.083 461.745C667.489 463.467 661.531 463.719 655.806 462.476C659.441 457.942 664.337 454.534 669.904 452.663C675.47 450.792 681.47 450.538 687.181 451.932C683.44 456.356 678.579 459.74 673.083 461.745Z" fill="#E5E5E5"/>
<path d="M696.924 508.44H1.0755C0.79026 508.44 0.516718 508.329 0.315022 508.131C0.113327 507.933 0 507.665 0 507.386C0 507.106 0.113327 506.838 0.315022 506.641C0.516718 506.443 0.79026 506.332 1.0755 506.332H696.924C697.21 506.332 697.483 506.443 697.685 506.641C697.887 506.838 698 507.106 698 507.386C698 507.665 697.887 507.933 697.685 508.131C697.483 508.329 697.21 508.44 696.924 508.44Z" fill="#CBCBCB"/>
<path d="M440.732 557.018L431.933 579.456L339.414 556.881L352.4 523.764L440.732 557.018Z" fill="#FFB7B7"/>
<path d="M465.174 559.651L436.804 632L435.87 631.649C428.247 628.779 422.1 623.06 418.781 615.75C415.462 608.44 415.242 600.138 418.17 592.669L418.171 592.668L435.499 548.479L465.174 559.651Z" fill="#2F2E41"/>
<path d="M300.145 276.076L259.827 279.774L257.826 397.313C258.361 403.073 261.176 408.4 265.67 412.151C270.163 415.902 275.978 417.78 281.867 417.383L307.43 415.657L300.145 276.076Z" fill="#E5E5E5"/>
<path d="M442.286 270.291L414.699 269.943L413.064 409.603C419.161 409.802 425.233 408.769 430.904 406.567C436.574 404.365 441.721 401.041 446.022 396.804C450.324 392.567 453.688 387.507 455.905 381.94C458.123 376.372 459.145 370.417 458.91 364.445L442.286 270.291Z" fill="#E5E5E5"/>
<path d="M282.212 459.218C281.559 463.269 280.61 467.269 279.374 471.187C277.982 475.022 275.833 478.569 274.56 482.444C270.503 494.796 276.128 508.567 285.111 518.101C292.901 526.336 302.957 532.186 314.065 534.946C322.169 536.943 330.595 537.231 338.947 537.508C362.073 538.276 385.794 538.964 407.707 531.682C414.631 529.325 421.318 526.348 427.684 522.79C429.695 521.852 431.465 520.486 432.868 518.791C434.539 516.46 434.753 513.436 434.739 510.587C434.689 500.982 432.702 491.425 433.174 481.831C433.435 476.516 434.45 471.206 433.951 465.908C433.259 459.891 430.686 454.23 426.585 449.701C422.483 445.171 417.053 441.994 411.038 440.605C404.822 439.297 398.374 440.01 392.045 440.606C375.617 442.153 359.119 442.875 342.616 442.771C325.754 442.666 308.995 440.144 292.217 439.881C287.255 439.803 287.355 441.301 285.776 446.006C284.321 450.337 283.131 454.749 282.212 459.218Z" fill="#2F2E41"/>
<path d="M216.275 451.411C211.74 450.295 207.068 449.808 202.396 449.966C197.486 450.231 192.691 451.518 188.328 453.741C183.966 455.963 180.136 459.07 177.094 462.855C174.052 466.639 171.867 471.015 170.684 475.691C169.502 480.367 169.349 485.237 170.236 489.975C171.368 495.108 173.219 500.063 175.735 504.7C179.416 512.018 183.831 519.32 190.645 524.01C194.631 526.753 199.244 528.464 203.803 530.147L239.691 543.393C244.97 545.341 250.251 547.29 255.582 549.097C282.369 558.169 310.296 563.609 338.586 565.265C347.204 565.768 355.952 565.908 364.358 563.986C366.353 563.53 368.481 562.85 369.636 561.192C370.32 560.024 370.724 558.719 370.816 557.375L373.024 542.228C373.335 540.095 373.634 537.85 372.836 535.843C371.825 533.297 369.289 531.696 366.871 530.335C343.277 517.058 315.729 509.733 295.869 491.51C291.194 487.22 287.282 480.42 281.601 477.506C275.16 474.202 267.574 472.316 260.916 469.271C246.36 462.614 232.05 454.964 216.275 451.411Z" fill="#2F2E41"/>
<path opacity="0.1" d="M252.104 471.832C264.788 475.726 318.344 502.707 327.524 512.127C326.293 512.562 284.546 489.639 283.293 489.27C271.906 485.922 260.456 482.552 249.642 477.651C247.467 476.666 235.51 472.032 236.051 469.343C236.662 466.308 249.852 471.141 252.104 471.832Z" fill="black"/>
<path d="M328.497 236.582L294.595 262.018C294.595 262.018 258.821 263.124 260.03 285.721C261.239 308.318 275.556 415.305 275.556 415.305L278.663 452.117L337.586 468.708C369.423 477.672 403.06 478.384 435.256 470.776L428.254 433.845C428.254 433.845 456.608 266.121 439.526 258.736C422.445 251.352 411.769 253.462 411.769 253.462L390.358 235L328.497 236.582Z" fill="#E5E5E5"/>
<path d="M429.756 195.53C429.756 228.514 398.628 223.525 360.229 223.525C321.831 223.525 290.703 228.514 290.703 195.53C290.703 162.546 305.908 104.08 360.229 104.08C416.422 104.08 429.756 162.546 429.756 195.53Z" fill="#2F2E41"/>
<path d="M396.371 206.708C414.641 188.807 414.641 159.783 396.371 141.882C378.1 123.981 348.478 123.981 330.207 141.882C311.937 159.783 311.937 188.807 330.207 206.708C348.478 224.609 378.1 224.609 396.371 206.708Z" fill="#FFB7B7"/>
<path d="M305.941 173.134H324.446L332.609 150.738L334.241 173.134H343.086L347.848 160.07L348.8 173.134H414.517C414.517 160.265 409.299 147.922 400.011 138.822C390.723 129.722 378.126 124.61 364.991 124.61H355.467C342.332 124.61 329.735 129.722 320.447 138.822C311.159 147.922 305.941 160.265 305.941 173.134Z" fill="#2F2E41"/>
<path d="M407.17 241.839H313.602V352.483H407.17V241.839Z" fill="#81A9D0"/>
<path d="M318.758 555.964L327.558 578.402L420.077 555.827L407.09 522.711L318.758 555.964Z" fill="#FFB7B7"/>
<path d="M323.991 547.426L341.319 591.614L341.32 591.616C344.248 599.084 344.028 607.387 340.709 614.697C337.39 622.006 331.243 627.725 323.62 630.595L322.686 630.946L294.315 558.597L323.991 547.426Z" fill="#2F2E41"/>
<path d="M503.694 442.822C511.127 440.996 518.832 440.481 526.449 441.299C532.532 441.956 538.799 443.614 543.241 447.74C548.646 452.761 550.383 460.526 550.528 467.823C550.766 482.356 545.846 496.52 536.609 507.894C534.354 510.771 531.671 513.301 528.651 515.4C525.394 517.396 521.922 519.036 518.298 520.288L437.928 551.348C416.785 559.519 395.566 567.713 373.513 573.1C372.314 573.667 370.934 573.745 369.676 573.315C368.419 572.885 367.388 571.984 366.809 570.809C366.791 570.773 366.774 570.737 366.757 570.7C359.716 560.845 353.808 550.258 349.143 539.13C348.922 538.865 348.769 538.553 348.697 538.218C348.626 537.884 348.638 537.537 348.732 537.208C348.826 536.879 349 536.577 349.238 536.328C349.477 536.078 349.773 535.889 350.102 535.776L406.948 503.774C411.02 501.482 415.138 499.156 418.519 495.963C420.975 493.63 422.987 490.886 424.459 487.86C425.637 485.449 425.747 479.758 427.252 477.976C428.726 476.231 433.767 476.091 436.095 475.405C439.379 474.42 442.594 473.229 445.722 471.839C458.438 466.266 469.762 458.167 481.952 451.641C488.789 447.811 496.095 444.848 503.694 442.822Z" fill="#2F2E41"/>
<path opacity="0.1" d="M471.468 466.721C461.701 473.908 449.055 480.515 439.376 487.891C436.072 490.408 381.002 520.743 380.223 524.772C389.254 526.263 446.779 486.834 455.009 482.9C463.239 478.965 470.535 473.417 477.765 467.909C479.607 466.506 487.415 462.287 482.126 460.719C479.147 459.835 473.667 465.285 471.468 466.721Z" fill="black"/>
<path d="M647.007 189.376C665.568 189.376 680.614 174.634 680.614 156.448C680.614 138.263 665.568 123.521 647.007 123.521C628.446 123.521 613.4 138.263 613.4 156.448C613.4 174.634 628.446 189.376 647.007 189.376Z" fill="#05386B"/>
<path d="M584.809 195.274C597.829 195.274 608.384 184.932 608.384 172.175C608.384 159.418 597.829 149.077 584.809 149.077C571.789 149.077 561.234 159.418 561.234 172.175C561.234 184.932 571.789 195.274 584.809 195.274Z" fill="#05386B"/>
<path d="M152.951 180.206C163.39 180.206 171.854 171.914 171.854 161.685C171.854 151.456 163.39 143.164 152.951 143.164C142.511 143.164 134.048 151.456 134.048 161.685C134.048 171.914 142.511 180.206 152.951 180.206Z" fill="#05386B"/>
<path d="M184.072 192.66C191.396 192.66 197.333 186.843 197.333 179.668C197.333 172.492 191.396 166.676 184.072 166.676C176.749 166.676 170.812 172.492 170.812 179.668C170.812 186.843 176.749 192.66 184.072 192.66Z" fill="#05386B"/>
<path d="M367.449 28.315C375.429 28.315 381.898 21.9765 381.898 14.1575C381.898 6.33853 375.429 0 367.449 0C359.468 0 352.999 6.33853 352.999 14.1575C352.999 21.9765 359.468 28.315 367.449 28.315Z" fill="#05386B"/>
<path opacity="0.17" d="M281.337 312.441L282.628 302.672C282.628 302.672 330.81 306.118 323.281 317.71C315.753 329.301 297.469 330.355 297.469 330.355L281.337 312.441Z" fill="#2F2E41"/>
<path d="M317.706 269.967C320.466 270.264 323.124 271.157 325.49 272.58C327.856 274.004 329.872 275.923 331.391 278.2C332.776 280.278 333.718 282.608 334.16 285.051C334.602 287.495 334.536 290 333.965 292.418C333.394 294.835 332.331 297.115 330.838 299.119C329.345 301.124 327.455 302.812 325.279 304.083C324.482 304.545 323.649 304.946 322.789 305.283L293.174 394.038C292.315 395.789 291.113 397.357 289.634 398.651C288.155 399.946 286.43 400.941 284.558 401.58C282.685 402.218 280.702 402.488 278.723 402.374C276.744 402.259 274.807 401.763 273.024 400.912C271.242 400.062 269.648 398.875 268.335 397.419C267.022 395.963 266.016 394.267 265.374 392.429C264.732 390.591 264.468 388.647 264.596 386.708C264.723 384.77 265.241 382.875 266.119 381.133L297.613 293.363C296.756 290.459 296.641 287.392 297.281 284.435C297.921 281.477 299.295 278.72 301.282 276.407C303.268 274.094 305.806 272.296 308.671 271.172C311.536 270.049 314.639 269.635 317.706 269.967Z" fill="#FFB7B7"/>
<path d="M281.779 303.505C281.779 303.505 298.748 331.911 323.281 317.71L299.505 406.856H279.474L258.751 403.064L264.553 366.232L281.779 303.505Z" fill="#E5E5E5"/>
<path d="M402.944 322.92L388.887 304.011C388.887 304.011 395.643 284.397 421.841 291.57C421.841 291.57 438.512 328.131 402.944 322.92Z" fill="#E5E5E5"/>
<path opacity="0.17" d="M402.944 322.92L388.887 304.011C388.887 304.011 395.643 284.397 421.841 291.57C421.841 291.57 438.512 328.131 402.944 322.92Z" fill="#2F2E41"/>
<path d="M406.666 256.854C410.722 258.701 413.966 261.913 415.808 265.906C417.651 269.899 417.969 274.407 416.705 278.61L448.2 366.38C449.078 368.122 449.596 370.017 449.724 371.956C449.852 373.895 449.587 375.839 448.945 377.677C448.303 379.515 447.297 381.211 445.984 382.667C444.671 384.123 443.078 385.31 441.295 386.161C439.512 387.011 437.575 387.508 435.596 387.622C433.617 387.737 431.634 387.467 429.761 386.828C427.889 386.189 426.163 385.194 424.685 383.899C423.206 382.605 422.003 381.037 421.145 379.285L391.53 290.53C390.67 290.193 389.837 289.792 389.04 289.331C386.864 288.06 384.974 286.371 383.481 284.367C381.988 282.362 380.925 280.083 380.354 277.665C379.783 275.248 379.717 272.742 380.159 270.299C380.601 267.855 381.543 265.525 382.928 263.447C384.447 261.17 386.462 259.251 388.829 257.828C391.195 256.404 393.853 255.512 396.613 255.214C400.055 254.832 403.537 255.4 406.666 256.854Z" fill="#FFB7B7"/>
<path d="M388.887 304.011C388.887 304.011 412.081 317.8 421.841 291.57L454.524 375.885L444.813 392.526L443.408 392.641C437.615 393.114 431.79 392.203 426.436 389.984C421.081 387.766 416.356 384.307 412.666 379.905C405.141 370.926 400.018 360.252 397.76 348.846L388.887 304.011Z" fill="#E5E5E5"/>
<path d="M55.926 166.494C85.0312 166.494 108.626 143.376 108.626 114.859C108.626 86.3427 85.0312 63.2254 55.926 63.2254C26.8209 63.2254 3.2265 86.3427 3.2265 114.859C3.2265 143.376 26.8209 166.494 55.926 166.494Z" fill="#05386B"/>
</g>
<defs>
<clipPath id="clip0">
<rect width="698" height="632" fill="white"/>
</clipPath>
</defs>
</svg>
