<svg width="18" height="18" viewBox="0 0 18 18" fill="none" xmlns="http://www.w3.org/2000/svg">
<g clip-path="url(#clip0)">
<path d="M17.9824 5.29205C17.9402 4.33564 17.7855 3.67812 17.564 3.10836C17.3354 2.50359 16.9838 1.96213 16.5231 1.51201C16.073 1.05489 15.528 0.699691 14.9302 0.474702C14.3571 0.253147 13.7031 0.0984842 12.7466 0.0563159C11.7831 0.0105764 11.4772 0 9.03337 0C6.58953 0 6.28364 0.0105764 5.32366 0.0527447C4.36725 0.094913 3.70973 0.249713 3.14012 0.471131C2.5352 0.699691 1.99374 1.05132 1.54363 1.51201C1.08651 1.96213 0.731444 2.50716 0.506318 3.10493C0.284763 3.67812 0.1301 4.33207 0.0879321 5.28848C0.0421926 6.25203 0.0316162 6.55792 0.0316162 9.00176C0.0316162 11.4456 0.0421926 11.7515 0.0843609 12.7115C0.126529 13.6679 0.281329 14.3254 0.502884 14.8952C0.731444 15.4999 1.08651 16.0414 1.54363 16.4915C1.99374 16.9486 2.53877 17.3038 3.13655 17.5288C3.70973 17.7504 4.36368 17.905 5.32023 17.9472C6.28007 17.9895 6.5861 17.9999 9.02994 17.9999C11.4738 17.9999 11.7797 17.9895 12.7396 17.9472C13.6961 17.905 14.3536 17.7504 14.9232 17.5288C16.1329 17.0611 17.0893 16.1047 17.557 14.8952C17.7784 14.322 17.9332 13.6679 17.9754 12.7115C18.0175 11.7515 18.0281 11.4456 18.0281 9.00176C18.0281 6.55792 18.0245 6.25203 17.9824 5.29205ZM16.3614 12.6411C16.3227 13.5202 16.1751 13.9949 16.052 14.3114C15.7495 15.0956 15.1272 15.7179 14.343 16.0204C14.0265 16.1434 13.5484 16.2911 12.6728 16.3297C11.7233 16.372 11.4386 16.3824 9.03694 16.3824C6.63527 16.3824 6.34696 16.372 5.40099 16.3297C4.52192 16.2911 4.04721 16.1434 3.73075 16.0204C3.34052 15.8761 2.98532 15.6476 2.69701 15.3487C2.39812 15.0568 2.16956 14.7052 2.02534 14.315C1.90227 13.9985 1.75461 13.5202 1.71601 12.6447C1.67371 11.6953 1.66327 11.4104 1.66327 9.00876C1.66327 6.6071 1.67371 6.31879 1.71601 5.37295C1.75461 4.49387 1.90227 4.01917 2.02534 3.7027C2.16956 3.31234 2.39812 2.95727 2.70058 2.66883C2.99232 2.36994 3.34395 2.14138 3.73432 1.99729C4.05079 1.87422 4.52906 1.72656 5.40457 1.68783C6.35397 1.64566 6.63885 1.63509 9.04037 1.63509C11.4456 1.63509 11.7304 1.64566 12.6763 1.68783C13.5554 1.72656 14.0301 1.87422 14.3466 1.99729C14.7368 2.14138 15.092 2.36994 15.3803 2.66883C15.6792 2.96071 15.9078 3.31234 16.052 3.7027C16.1751 4.01917 16.3227 4.49731 16.3614 5.37295C16.4036 6.32236 16.4142 6.6071 16.4142 9.00876C16.4142 11.4104 16.4036 11.6917 16.3614 12.6411Z" fill="#05386B"/>
<path d="M9.03338 4.37781C6.48061 4.37781 4.40942 6.44886 4.40942 9.00176C4.40942 11.5547 6.48061 13.6257 9.03338 13.6257C11.5863 13.6257 13.6573 11.5547 13.6573 9.00176C13.6573 6.44886 11.5863 4.37781 9.03338 4.37781ZM9.03338 12.0012C7.37727 12.0012 6.03393 10.658 6.03393 9.00176C6.03393 7.34552 7.37727 6.00232 9.03338 6.00232C10.6896 6.00232 12.0328 7.34552 12.0328 9.00176C12.0328 10.658 10.6896 12.0012 9.03338 12.0012Z" fill="#05386B"/>
<path d="M14.9198 4.19496C14.9198 4.79109 14.4364 5.27444 13.8402 5.27444C13.244 5.27444 12.7607 4.79109 12.7607 4.19496C12.7607 3.5987 13.244 3.11548 13.8402 3.11548C14.4364 3.11548 14.9198 3.5987 14.9198 4.19496Z" fill="#05386B"/>
</g>
<defs>
<clipPath id="clip0">
<rect width="18" height="18" fill="white"/>
</clipPath>
</defs>
</svg>
