<svg width="60" height="60" viewBox="0 0 60 60" fill="none" xmlns="http://www.w3.org/2000/svg">
<path d="M21.9824 32.0145C21.76 31.9033 21.5026 31.885 21.2667 31.9636C21.0308 32.0422 20.8358 32.2113 20.7246 32.4337L20.6 32.6828C20.3609 33.1611 19.9933 33.5633 19.5385 33.8445C19.0836 34.1256 18.5595 34.2745 18.0248 34.2745C17.4901 34.2745 16.9659 34.1256 16.5111 33.8445C16.0562 33.5633 15.6886 33.1611 15.4495 32.6828L15.3251 32.4338C15.2139 32.2114 15.0189 32.0423 14.783 31.9637C14.5471 31.8851 14.2896 31.9034 14.0672 32.0146C13.8448 32.1258 13.6757 32.3208 13.5971 32.5567C13.5185 32.7925 13.5368 33.05 13.648 33.2724L13.7726 33.5213C14.1674 34.311 14.7744 34.9751 15.5254 35.4393C16.2765 35.9035 17.1419 36.1493 18.0248 36.1493C18.9077 36.1493 19.7732 35.9035 20.5243 35.4393C21.2753 34.9751 21.8823 34.311 22.2771 33.5213L22.4016 33.2723C22.5128 33.0499 22.5311 32.7925 22.4525 32.5566C22.3738 32.3207 22.2048 32.1257 21.9824 32.0145Z" fill="#05386B"/>
<path d="M50.3152 24.1591C49.976 23.2832 49.3825 22.5289 48.611 21.9931C48.5992 21.959 48.5855 21.9256 48.5699 21.893C47.8857 20.4825 46.913 19.2313 45.7148 18.2204C44.5165 17.2095 43.1195 16.4614 41.6139 16.0244C42.4653 14.6343 43.7492 13.5618 45.2686 12.9714C45.55 13.5692 46.0328 14.0489 46.6324 14.3263C47.232 14.6037 47.9101 14.6612 48.5479 14.4887C49.1856 14.3161 49.7423 13.9246 50.1202 13.3827C50.4982 12.8408 50.6733 12.1831 50.6148 11.525C50.5564 10.8669 50.2682 10.2504 49.8007 9.78357C49.3331 9.31674 48.7162 9.02939 48.058 8.97192C47.3999 8.91445 46.7425 9.09051 46.2011 9.46925C45.6598 9.84798 45.269 10.4052 45.0974 11.0432C42.7535 11.8011 40.8047 13.4556 39.6765 15.6454C37.4201 15.4066 35.1444 15.8594 33.1511 16.9436C31.1579 18.0278 29.5413 19.6924 28.5157 21.7164L28.1642 19.8766L30.3701 17.806C30.4999 17.6842 30.5923 17.528 30.6366 17.3557C30.6809 17.1833 30.6752 17.0019 30.6202 16.8327C30.5652 16.6634 30.4632 16.5133 30.3261 16.3999C30.1889 16.2865 30.0224 16.2144 29.8458 16.1922L28.8287 16.064V11.5572C29.5445 11.283 30.1417 10.7668 30.5167 10.0983C30.8917 9.42971 31.0208 8.65097 30.8816 7.89718C30.7424 7.1434 30.3437 6.46214 29.7546 5.97162C29.1656 5.48111 28.4234 5.2123 27.6569 5.21185H27.6217C27.2928 4.64191 26.8197 4.16861 26.2499 3.83954C25.68 3.51047 25.0336 3.33722 24.3756 3.33722C23.7176 3.33722 23.0712 3.51047 22.5013 3.83954C21.9315 4.16861 21.4584 4.64191 21.1295 5.21185H21.0944C20.2652 5.21242 19.467 5.52689 18.8602 6.09203C18.2535 6.65717 17.8832 7.43106 17.8238 8.2581C17.7644 9.08515 18.0204 9.904 18.5401 10.55C19.0599 11.1961 19.805 11.6213 20.6256 11.7404V16.0593L19.5709 16.1923C19.3943 16.2145 19.2278 16.2866 19.0906 16.4C18.9535 16.5134 18.8514 16.6635 18.7964 16.8327C18.7414 17.002 18.7357 17.1834 18.78 17.3558C18.8243 17.5281 18.9167 17.6843 19.0465 17.8061L21.2526 19.8767L20.6848 22.8486C20.6514 23.0234 20.6684 23.204 20.7339 23.3695C20.7994 23.535 20.9106 23.6784 21.0546 23.783C21.1985 23.8876 21.3693 23.9491 21.5469 23.9602C21.7245 23.9714 21.9016 23.9317 22.0575 23.8459L24.7085 22.3877L27.3594 23.8459C27.4554 23.898 27.5597 23.9327 27.6676 23.9486C27.5063 24.5676 27.3985 25.1994 27.3456 25.8368H11.6615C11.4363 25.8368 11.2186 25.9179 11.0483 26.0652C10.878 26.2124 10.7663 26.4161 10.7338 26.6389L10.3558 29.2267L5.80021 35.6045C5.66606 35.7924 5.60591 36.0231 5.6313 36.2525C5.65669 36.4819 5.76582 36.6939 5.93779 36.8479L9.3756 39.9254V53.0243C9.3756 53.255 9.46067 53.4776 9.61453 53.6496C9.76838 53.8215 9.98022 53.9306 10.2095 53.9561L17.8131 54.8009V58.6493C17.8131 58.898 17.9119 59.1364 18.0877 59.3123C18.2635 59.4881 18.502 59.5868 18.7506 59.5868H39.3756C39.6242 59.5868 39.8627 59.4881 40.0385 59.3123C40.2143 59.1364 40.3131 58.898 40.3131 58.6493V50.329L41.4515 45.8539C42.6485 41.1564 43.0893 36.2981 42.7573 31.4618H49.7663C50.6924 31.4617 51.5842 31.1115 52.2632 30.4816C52.9421 29.8517 53.3579 28.9885 53.4273 28.065C53.4967 27.1415 53.2146 26.2258 52.6375 25.5015C52.0604 24.7772 51.2309 24.2977 50.3152 24.1591ZM26.9537 11.7743V15.8275L26.8444 15.8138L25.5569 13.0759C25.4811 12.915 25.3611 12.7788 25.2109 12.6835C25.0607 12.5881 24.8865 12.5375 24.7085 12.5375C24.5306 12.5375 24.3564 12.5881 24.2062 12.6835C24.0559 12.7788 23.936 12.915 23.8602 13.0759L22.5726 15.8138L22.5006 15.8228V11.7743H26.9537ZM19.6881 8.4931C19.6885 8.12026 19.8368 7.76281 20.1004 7.49917C20.3641 7.23554 20.7215 7.08725 21.0944 7.08685H21.7249C21.9188 7.08685 22.1079 7.02676 22.2661 6.91486C22.4244 6.80296 22.5441 6.64475 22.6088 6.462C22.7378 6.09644 22.977 5.77989 23.2934 5.55597C23.6098 5.33206 23.988 5.21182 24.3756 5.21182C24.7633 5.21182 25.1414 5.33206 25.4578 5.55597C25.7743 5.77989 26.0135 6.09644 26.1424 6.462C26.2071 6.64475 26.3268 6.80296 26.4851 6.91486C26.6434 7.02676 26.8324 7.08685 27.0263 7.08685H27.6569C28.0298 7.08685 28.3875 7.235 28.6512 7.49873C28.9149 7.76245 29.0631 8.12013 29.0631 8.4931C29.0631 8.86606 28.9149 9.22374 28.6512 9.48746C28.3875 9.75119 28.0298 9.89935 27.6569 9.89935H21.0944C20.7215 9.89894 20.3641 9.75066 20.1004 9.48702C19.8368 9.22338 19.6885 8.86593 19.6881 8.4931ZM26.5054 18.8624C26.3902 18.9706 26.3042 19.106 26.2554 19.2563C26.2065 19.4065 26.1965 19.5667 26.2261 19.7219L26.5165 21.2422L25.1608 20.4963C25.0223 20.4201 24.8669 20.3802 24.7089 20.3802C24.551 20.3802 24.3955 20.4201 24.2571 20.4963L22.9009 21.2422L23.1914 19.7219C23.221 19.5667 23.2109 19.4066 23.1621 19.2563C23.1133 19.1061 23.0273 18.9706 22.9122 18.8624L21.7837 17.8032L23.3188 17.6096C23.4756 17.5898 23.6248 17.5308 23.7526 17.4379C23.8804 17.345 23.9827 17.2213 24.0499 17.0784L24.7087 15.6779L25.3674 17.0784C25.4346 17.2213 25.5368 17.345 25.6646 17.4379C25.7924 17.5307 25.9416 17.5898 26.0984 17.6096L27.6335 17.8032L26.5054 18.8624ZM47.8131 10.8368C47.9985 10.8368 48.1798 10.8918 48.334 10.9948C48.4881 11.0979 48.6083 11.2443 48.6792 11.4156C48.7502 11.5869 48.7688 11.7754 48.7326 11.9572C48.6964 12.1391 48.6071 12.3061 48.476 12.4373C48.3449 12.5684 48.1779 12.6577 47.996 12.6938C47.8141 12.73 47.6256 12.7114 47.4543 12.6405C47.283 12.5695 47.1366 12.4494 47.0336 12.2952C46.9306 12.141 46.8756 11.9598 46.8756 11.7743C46.8759 11.5258 46.9747 11.2875 47.1505 11.1117C47.3263 10.936 47.5646 10.8371 47.8131 10.8368ZM38.4967 17.4579C39.9374 17.4516 41.3596 17.782 42.6499 18.4229C43.9403 19.0638 45.0629 19.9975 45.9283 21.1493C45.2363 21.1511 44.5534 21.3072 43.9294 21.6064C42.9518 20.5776 41.7022 19.8474 40.3259 19.5009C38.9496 19.1543 37.5032 19.2056 36.155 19.6487C34.8067 20.0918 33.6119 20.9086 32.7096 22.0041C31.8072 23.0995 31.2344 24.4286 31.0578 25.8368H29.2281C29.4631 23.5412 30.5407 21.4141 32.2525 19.8666C33.9644 18.319 36.189 17.4609 38.4967 17.4579ZM39.0024 25.8368H36.8754C37.002 25.6169 37.172 25.425 37.3751 25.2728C37.5782 25.1206 37.8101 25.0113 38.0567 24.9516C38.3034 24.8919 38.5596 24.883 38.8098 24.9255C39.06 24.968 39.299 25.0609 39.5121 25.1986C39.3193 25.3919 39.1484 25.606 39.0027 25.8368H39.0024ZM41.5607 24.1591C41.4529 24.1752 41.3466 24.1962 41.2418 24.2219C40.784 23.729 40.202 23.3685 39.5568 23.178C38.9117 22.9875 38.2272 22.9742 37.5751 23.1393C36.923 23.3045 36.3274 23.6421 35.8507 24.1167C35.374 24.5913 35.0338 25.1855 34.8658 25.8368H32.9516C33.1224 24.8251 33.5667 23.8793 34.2365 23.1019C34.9063 22.3246 35.776 21.7454 36.7514 21.427C37.7268 21.1085 38.7708 21.0631 39.7702 21.2956C40.7696 21.528 41.6864 22.0295 42.4212 22.7457C42.0526 23.1619 41.7613 23.6405 41.561 24.1591H41.5607ZM39.6344 45.3919L38.4671 49.9806C38.4478 50.0562 38.4381 50.1339 38.4381 50.2118V57.7118H19.6881V53.9618C19.6881 53.7311 19.603 53.5085 19.4492 53.3366C19.2953 53.1647 19.0835 53.0556 18.8542 53.0301L11.2506 52.1853V44.8287H13.1512C13.8034 44.8305 14.4494 44.7029 15.052 44.4534C15.6546 44.2038 16.2017 43.8372 16.6616 43.3748C16.8374 43.1989 16.9362 42.9605 16.9362 42.7118C16.9362 42.4631 16.8374 42.2247 16.6616 42.0489C16.4857 41.873 16.2472 41.7743 15.9986 41.7743C15.7499 41.7743 15.5115 41.8731 15.3356 42.0489C15.0494 42.3367 14.709 42.5648 14.334 42.7201C13.9591 42.8755 13.557 42.9548 13.1512 42.9537H11.2506V39.5063C11.2506 39.3745 11.2228 39.2441 11.169 39.1237C11.1152 39.0033 11.0366 38.8957 10.9384 38.8077L7.81408 36.0108L12.0135 30.1317C12.1002 30.0103 12.1567 29.8699 12.1783 29.7223L12.4719 27.7118H38.4399C38.4399 27.7379 38.4381 27.7638 38.4381 27.7899C38.439 28.5443 38.6719 29.2803 39.1052 29.8979C39.5384 30.5155 40.1512 30.985 40.8603 31.2426C41.2247 35.9943 40.8106 40.7737 39.6344 45.3919ZM49.7663 29.5868H42.1099C41.6359 29.583 41.1826 29.392 40.8487 29.0554C40.5148 28.7189 40.3275 28.264 40.3275 27.79C40.3275 27.3159 40.5148 26.861 40.8487 26.5245C41.1826 26.1879 41.6359 25.9969 42.1099 25.9931H42.2701C42.485 25.9931 42.6934 25.9192 42.8603 25.784C43.0273 25.6487 43.1427 25.4602 43.1872 25.25C43.3214 24.6199 43.6678 24.0549 44.1685 23.6496C44.6692 23.2442 45.2939 23.0231 45.9381 23.0231C46.5823 23.0231 47.207 23.2442 47.7077 23.6496C48.2084 24.0549 48.5548 24.6199 48.689 25.25C48.7335 25.4602 48.8489 25.6487 49.0159 25.784C49.1828 25.9192 49.3912 25.9931 49.6061 25.9931H49.7663C50.2403 25.9969 50.6937 26.1879 51.0275 26.5245C51.3614 26.861 51.5487 27.3159 51.5487 27.79C51.5487 28.264 51.3614 28.7189 51.0275 29.0554C50.6937 29.392 50.2403 29.583 49.7663 29.5868Z" fill="#05386B"/>
<path d="M33.7506 13.6494C33.9993 13.6494 34.2377 13.5506 34.4135 13.3748C34.5894 13.199 34.6881 12.9605 34.6881 12.7119V12.551C34.685 11.3132 35.1054 10.1117 35.8796 9.14597C36.4849 9.64621 37.2495 9.91288 38.0346 9.89757C38.8197 9.88225 39.5733 9.58598 40.1587 9.06251C40.744 8.53904 41.1223 7.82307 41.2249 7.04453C41.3275 6.26598 41.1475 5.47647 40.7178 4.81925C40.288 4.16204 39.6368 3.68068 38.8824 3.46254C38.1281 3.2444 37.3205 3.30392 36.6063 3.63032C35.8921 3.95671 35.3185 4.52835 34.9897 5.24148C34.6609 5.95461 34.5987 6.76197 34.8143 7.51706C33.5252 8.87551 32.8085 10.6782 32.8131 12.551V12.7119C32.8131 12.9605 32.9119 13.199 33.0877 13.3748C33.2635 13.5506 33.502 13.6494 33.7506 13.6494ZM37.9694 5.21187C38.2475 5.21187 38.5194 5.29434 38.7507 5.44886C38.9819 5.60338 39.1622 5.82301 39.2686 6.07997C39.375 6.33693 39.4029 6.61968 39.3486 6.89246C39.2944 7.16525 39.1604 7.41582 38.9638 7.61249C38.7671 7.80915 38.5165 7.94309 38.2437 7.99735C37.9709 8.05161 37.6882 8.02376 37.4312 7.91732C37.1743 7.81089 36.9547 7.63064 36.8001 7.39939C36.6456 7.16813 36.5631 6.89625 36.5631 6.61812C36.5635 6.24528 36.7118 5.88783 36.9755 5.62419C37.2391 5.36056 37.5965 5.21227 37.9694 5.21187Z" fill="#05386B"/>
<path d="M13.1256 15.5244C13.5188 15.5246 13.9076 15.4419 14.2667 15.2816C15.348 16.698 15.9351 18.4299 15.9381 20.2119C15.9381 20.4605 16.0369 20.699 16.2127 20.8748C16.3885 21.0506 16.627 21.1494 16.8756 21.1494C17.1243 21.1494 17.3627 21.0506 17.5385 20.8748C17.7143 20.699 17.8131 20.4605 17.8131 20.2119C17.8101 17.9585 17.0484 15.7719 15.6508 14.0043C15.645 13.9972 15.6391 13.9908 15.6327 13.9838C15.9096 13.4375 16.0005 12.8158 15.8917 12.2131C15.7829 11.6105 15.4803 11.0598 15.0299 10.6448C14.5795 10.2299 14.0059 9.9733 13.3963 9.91415C12.7868 9.855 12.1746 9.99649 11.6528 10.3171C11.131 10.6377 10.7282 11.12 10.5055 11.6905C10.2829 12.261 10.2526 12.8886 10.4193 13.4779C10.5859 14.0672 10.9405 14.586 11.429 14.9554C11.9175 15.3248 12.5132 15.5245 13.1256 15.5244ZM13.1256 11.7744C13.311 11.7744 13.4923 11.8293 13.6465 11.9324C13.8006 12.0354 13.9208 12.1818 13.9918 12.3531C14.0627 12.5244 14.0813 12.7129 14.0451 12.8948C14.0089 13.0766 13.9196 13.2437 13.7885 13.3748C13.6574 13.5059 13.4904 13.5952 13.3085 13.6313C13.1267 13.6675 12.9382 13.649 12.7669 13.578C12.5956 13.507 12.4491 13.3869 12.3461 13.2327C12.2431 13.0785 12.1881 12.8973 12.1881 12.7119C12.1884 12.4633 12.2873 12.225 12.463 12.0493C12.6388 11.8735 12.8771 11.7746 13.1256 11.7744Z" fill="#05386B"/>
<path d="M10.2059 21.5127C10.8286 21.6283 11.4218 21.8677 11.9503 22.2167C12.4789 22.5656 12.9321 23.017 13.2831 23.5442C13.4217 23.7496 13.6359 23.8919 13.879 23.9398C14.1221 23.9877 14.3743 23.9375 14.5804 23.8C14.7866 23.6625 14.9299 23.4491 14.9791 23.2062C15.0284 22.9634 14.9795 22.711 14.8431 22.5041C14.3138 21.7093 13.6186 21.0386 12.8052 20.5383C11.9918 20.0381 11.0797 19.72 10.1316 19.6061C9.87374 18.8632 9.3576 18.2377 8.67718 17.8435C7.99676 17.4492 7.19735 17.3126 6.42462 17.4584C5.65188 17.6042 4.95725 18.0228 4.46728 18.6379C3.97731 19.2529 3.72461 20.0236 3.75524 20.8093C3.78586 21.5951 4.09776 22.3437 4.63411 22.9188C5.17046 23.4939 5.89556 23.8571 6.6773 23.9424C7.45904 24.0276 8.24538 23.8291 8.89306 23.3832C9.54073 22.9372 10.0066 22.2734 10.2059 21.5127ZM5.6256 20.6806C5.6256 20.4025 5.70808 20.1306 5.8626 19.8994C6.01712 19.6681 6.23675 19.4879 6.49371 19.3814C6.75066 19.275 7.03341 19.2471 7.3062 19.3014C7.57899 19.3557 7.82955 19.4896 8.02622 19.6863C8.22289 19.8829 8.35682 20.1335 8.41108 20.4063C8.46534 20.6791 8.43749 20.9618 8.33106 21.2188C8.22462 21.4757 8.04438 21.6954 7.81312 21.8499C7.58187 22.0044 7.30998 22.0869 7.03185 22.0869C6.65902 22.0865 6.30157 21.9382 6.03793 21.6746C5.77429 21.4109 5.62601 21.0535 5.6256 20.6806Z" fill="#05386B"/>
<path d="M5.61892 13.2666C5.63349 13.1443 5.62384 13.0204 5.5905 12.9018C5.55716 12.7833 5.50079 12.6725 5.42461 12.5757C5.34843 12.479 5.25394 12.3982 5.14653 12.3379C5.03912 12.2777 4.92089 12.2392 4.79861 12.2247C3.37126 12.0556 1.92428 12.2461 0.589351 12.7789C0.475039 12.8246 0.370852 12.8924 0.282739 12.9784C0.194626 13.0644 0.124312 13.1669 0.0758113 13.28C0.0273108 13.3932 0.0015739 13.5148 6.99566e-05 13.6379C-0.00143398 13.761 0.0213245 13.8832 0.067046 13.9975C0.112768 14.1118 0.180557 14.216 0.266543 14.3041C0.352529 14.3922 0.455029 14.4626 0.56819 14.5111C0.68135 14.5596 0.802955 14.5853 0.926062 14.5868C1.04917 14.5883 1.17137 14.5655 1.28568 14.5198C2.32931 14.1033 3.46051 13.9542 4.57642 14.0862C4.69873 14.1011 4.82277 14.0917 4.94143 14.0585C5.06009 14.0254 5.17103 13.9691 5.26789 13.8929C5.36475 13.8168 5.44562 13.7223 5.50586 13.6148C5.56609 13.5073 5.60452 13.389 5.61892 13.2666Z" fill="#05386B"/>
<path d="M7.75842 15.3425C8.03269 15.5442 8.29124 15.7664 8.53185 16.0072L8.71197 16.1873C8.88779 16.3631 9.12625 16.4619 9.3749 16.4619C9.62355 16.4619 9.86201 16.3631 10.0378 16.1873C10.2136 16.0115 10.3124 15.773 10.3124 15.5244C10.3124 15.2757 10.2136 15.0373 10.0378 14.8615L9.85771 14.6813C9.54969 14.3734 9.21878 14.0892 8.86783 13.8313C8.66736 13.6841 8.41664 13.6226 8.17082 13.6602C7.92499 13.6979 7.70421 13.8317 7.55703 14.0322C7.40985 14.2326 7.34833 14.4834 7.38601 14.7292C7.42369 14.975 7.55748 15.1958 7.75795 15.343L7.75842 15.3425Z" fill="#05386B"/>
</svg>
