<svg width="16" height="15" viewBox="0 0 16 15" fill="none" xmlns="http://www.w3.org/2000/svg">
<path d="M15.508 13.5527L11.2206 9.40355C12.0511 8.41081 12.5511 7.14933 12.5511 5.77541C12.5511 2.59105 9.87372 3.05176e-05 6.58322 3.05176e-05C3.29272 3.05176e-05 0.615356 2.59103 0.615356 5.77538C0.615356 8.95974 3.29275 11.5508 6.58325 11.5508C8.00297 11.5508 9.30649 11.0669 10.3323 10.2632L14.6198 14.4123C14.7423 14.5309 14.9031 14.5904 15.0639 14.5904C15.2248 14.5904 15.3856 14.5309 15.5081 14.4123C15.7537 14.1746 15.7537 13.7904 15.508 13.5527ZM6.58325 10.3349C3.98501 10.3349 1.87176 8.28981 1.87176 5.77538C1.87176 3.26096 3.98501 1.21588 6.58325 1.21588C9.18149 1.21588 11.2947 3.26096 11.2947 5.77538C11.2947 8.28981 9.18146 10.3349 6.58325 10.3349Z" fill="#757575"/>
</svg>
