<svg width="604" height="638" viewBox="0 0 604 638" fill="none" xmlns="http://www.w3.org/2000/svg">
<path d="M309.328 1.3909L289.675 7.35575L47.5447 80.8442L27.8916 86.809C18.3522 89.7178 10.1827 96.9613 5.17541 106.95C0.168101 116.939 -1.26808 128.858 1.18193 140.092L86.4021 529.027C88.8736 540.254 95.0281 549.869 103.515 555.763C112.003 561.656 122.13 563.346 131.675 560.463L131.725 560.447L413.06 475.06L413.111 475.045C422.65 472.136 430.82 464.892 435.827 454.903C440.834 444.914 442.271 432.995 439.821 421.762L354.6 32.8266C352.129 21.5994 345.974 11.9844 337.487 6.09105C329 0.197745 318.873 -1.49259 309.328 1.3909Z" fill="#F2F2F2"/>
<path d="M312 13.5851L288.722 20.6501L53.8407 91.9385L30.5634 99.0033C23.7701 101.075 17.9524 106.233 14.3866 113.346C10.8207 120.46 9.79797 128.947 11.5427 136.947L96.7628 525.882C98.5228 533.878 102.906 540.725 108.95 544.921C114.994 549.118 122.205 550.322 129.003 548.268L129.053 548.253L410.388 462.866L410.439 462.85C417.232 460.779 423.05 455.62 426.616 448.507C430.181 441.394 431.204 432.906 429.459 424.906L344.239 35.9712C342.479 27.9761 338.097 21.1291 332.053 16.9324C326.009 12.7356 318.797 11.5318 312 13.5851Z" fill="white"/>
<path d="M294.423 139.533L152.103 182.728C150.513 183.21 148.826 182.93 147.412 181.948C145.998 180.966 144.974 179.364 144.564 177.493C144.154 175.622 144.392 173.636 145.226 171.972C146.061 170.308 147.422 169.102 149.012 168.62L291.332 125.425C292.921 124.944 294.607 125.226 296.02 126.208C297.433 127.19 298.456 128.791 298.866 130.661C299.276 132.531 299.038 134.516 298.205 136.179C297.372 137.842 296.012 139.049 294.423 139.533Z" fill="#F2F2F2"/>
<path d="M324.363 155.836L157.319 206.535C155.73 207.017 154.042 206.737 152.629 205.755C151.215 204.773 150.19 203.171 149.78 201.3C149.37 199.429 149.609 197.443 150.443 195.779C151.277 194.115 152.639 192.91 154.228 192.427L321.272 141.728C322.861 141.246 324.549 141.526 325.962 142.508C327.376 143.49 328.401 145.092 328.811 146.963C329.221 148.834 328.982 150.82 328.148 152.484C327.314 154.148 325.952 155.353 324.363 155.836Z" fill="#F2F2F2"/>
<path d="M317.801 246.224L175.48 289.419C174.693 289.658 173.874 289.712 173.069 289.578C172.264 289.444 171.49 289.125 170.789 288.639C170.089 288.153 169.478 287.509 168.989 286.745C168.5 285.981 168.144 285.11 167.941 284.184C167.738 283.258 167.692 282.293 167.806 281.346C167.92 280.399 168.191 279.487 168.604 278.663C169.017 277.839 169.564 277.119 170.213 276.544C170.863 275.969 171.602 275.55 172.389 275.311L314.709 232.116C315.496 231.877 316.316 231.823 317.121 231.956C317.926 232.09 318.7 232.409 319.4 232.895C320.1 233.381 320.712 234.025 321.201 234.79C321.69 235.554 322.046 236.424 322.249 237.351C322.451 238.277 322.497 239.241 322.384 240.188C322.27 241.136 321.999 242.047 321.586 242.871C321.173 243.695 320.626 244.415 319.977 244.99C319.327 245.566 318.588 245.985 317.801 246.224Z" fill="#F2F2F2"/>
<path d="M347.74 262.527L180.697 313.226C179.91 313.465 179.09 313.519 178.285 313.385C177.48 313.251 176.706 312.932 176.006 312.446C175.306 311.96 174.694 311.316 174.205 310.552C173.716 309.788 173.36 308.917 173.158 307.991C172.955 307.065 172.909 306.1 173.022 305.153C173.136 304.206 173.407 303.294 173.82 302.47C174.233 301.646 174.78 300.926 175.429 300.351C176.079 299.776 176.818 299.357 177.605 299.118L344.649 248.419C346.239 247.937 347.926 248.217 349.34 249.199C350.754 250.181 351.778 251.783 352.188 253.654C352.598 255.525 352.36 257.511 351.526 259.175C350.691 260.839 349.33 262.044 347.74 262.527Z" fill="#F2F2F2"/>
<path d="M341.178 352.915L198.857 396.11C197.268 396.591 195.582 396.309 194.169 395.328C192.756 394.346 191.732 392.744 191.322 390.874C190.913 389.004 191.151 387.019 191.984 385.355C192.817 383.692 194.178 382.486 195.766 382.002L338.087 338.807C339.676 338.324 341.364 338.605 342.777 339.586C344.191 340.568 345.216 342.171 345.626 344.041C346.036 345.912 345.797 347.898 344.963 349.562C344.129 351.226 342.767 352.432 341.178 352.915Z" fill="#F2F2F2"/>
<path d="M371.117 369.218L204.074 419.917C203.286 420.157 202.467 420.212 201.661 420.078C200.856 419.945 200.081 419.626 199.38 419.14C198.679 418.654 198.067 418.011 197.578 417.246C197.089 416.481 196.732 415.611 196.529 414.684C196.326 413.757 196.28 412.792 196.394 411.844C196.508 410.896 196.78 409.984 197.193 409.16C197.607 408.336 198.154 407.616 198.805 407.041C199.455 406.466 200.195 406.047 200.983 405.809L368.026 355.11C369.616 354.628 371.303 354.908 372.717 355.89C374.131 356.872 375.155 358.474 375.565 360.345C375.975 362.216 375.737 364.202 374.903 365.866C374.069 367.53 372.707 368.735 371.117 369.218Z" fill="#F2F2F2"/>
<path d="M127.807 227.018L77.4409 242.305C76.6787 242.535 75.8701 242.4 75.1924 241.93C74.5147 241.459 74.0232 240.691 73.8259 239.795L62.2645 187.03C62.0688 186.133 62.1835 185.181 62.5833 184.383C62.9832 183.586 63.6355 183.007 64.3972 182.775L114.763 167.489C115.525 167.258 116.334 167.393 117.012 167.864C117.689 168.334 118.181 169.102 118.378 169.999L129.94 222.764C130.135 223.661 130.02 224.613 129.621 225.41C129.221 226.208 128.568 226.786 127.807 227.018Z" fill="#E6E6E6"/>
<path d="M151.184 333.709L100.818 348.996C100.056 349.226 99.2473 349.091 98.5696 348.621C97.8918 348.15 97.4004 347.382 97.2031 346.486L85.6417 293.721C85.446 292.824 85.5607 291.872 85.9605 291.074C86.3604 290.277 87.0127 289.698 87.7744 289.466L138.14 274.18C138.902 273.949 139.711 274.084 140.389 274.555C141.066 275.025 141.558 275.793 141.755 276.69L153.317 329.455C153.512 330.352 153.398 331.304 152.998 332.101C152.598 332.899 151.946 333.477 151.184 333.709Z" fill="#E6E6E6"/>
<path d="M174.561 440.4L124.195 455.687C123.433 455.917 122.625 455.782 121.947 455.312C121.269 454.841 120.778 454.073 120.58 453.177L109.019 400.412C108.823 399.515 108.938 398.563 109.338 397.765C109.738 396.968 110.39 396.389 111.152 396.157L161.518 380.871C162.28 380.64 163.088 380.775 163.766 381.246C164.444 381.716 164.935 382.484 165.133 383.381L176.694 436.146C176.89 437.043 176.775 437.995 176.375 438.792C175.975 439.59 175.323 440.168 174.561 440.4Z" fill="#E6E6E6"/>
<path d="M505.616 99.9811H214.972C205.117 99.9941 195.67 104.607 188.702 112.808C181.734 121.009 177.814 132.128 177.803 143.726V545.386C177.814 556.984 181.734 568.103 188.702 576.304C195.67 584.505 205.118 589.118 214.972 589.131H505.616C515.47 589.118 524.917 584.505 531.886 576.304C538.854 568.103 542.773 556.984 542.784 545.386V143.726C542.773 132.128 538.854 121.009 531.886 112.808C524.917 104.607 515.47 99.9941 505.616 99.9811Z" fill="#E6E6E6"/>
<path d="M505.616 112.574H214.972C207.954 112.584 201.227 115.869 196.264 121.709C191.302 127.549 188.511 135.467 188.503 143.726V545.386C188.511 553.645 191.302 561.563 196.264 567.403C201.227 573.243 207.954 576.528 214.972 576.537H505.616C512.633 576.528 519.361 573.243 524.323 567.403C529.285 561.563 532.076 553.645 532.084 545.386V143.726C532.076 135.467 529.285 127.549 524.323 121.709C519.361 115.869 512.633 112.584 505.616 112.574Z" fill="white"/>
<path d="M461.874 333.285H314.897C314.084 333.286 313.278 333.099 312.526 332.733C311.775 332.367 311.092 331.831 310.516 331.154C309.941 330.478 309.484 329.674 309.173 328.79C308.861 327.906 308.701 326.958 308.701 326C308.701 325.043 308.861 324.095 309.173 323.211C309.484 322.326 309.941 321.523 310.516 320.847C311.092 320.17 311.775 319.634 312.526 319.268C313.278 318.902 314.084 318.715 314.897 318.716H461.874C463.514 318.718 465.087 319.486 466.246 320.852C467.405 322.218 468.056 324.07 468.056 326C468.056 327.931 467.405 329.783 466.246 331.149C465.087 332.515 463.514 333.283 461.874 333.285Z" fill="#E6E6E6"/>
<path d="M487.406 357.871H314.897C314.084 357.872 313.278 357.685 312.526 357.319C311.775 356.953 311.092 356.417 310.516 355.74C309.941 355.064 309.484 354.26 309.173 353.376C308.861 352.492 308.701 351.544 308.701 350.586C308.701 349.629 308.861 348.681 309.173 347.797C309.484 346.912 309.941 346.109 310.516 345.432C311.092 344.756 311.775 344.22 312.526 343.854C313.278 343.488 314.084 343.301 314.897 343.302H487.406C489.047 343.302 490.622 344.069 491.782 345.435C492.943 346.802 493.595 348.654 493.595 350.586C493.595 352.518 492.943 354.371 491.782 355.737C490.622 357.104 489.047 357.871 487.406 357.871Z" fill="#E6E6E6"/>
<path d="M461.874 443.467H314.897C314.084 443.468 313.278 443.28 312.526 442.914C311.775 442.549 311.092 442.012 310.516 441.336C309.941 440.659 309.484 439.856 309.173 438.972C308.861 438.087 308.701 437.139 308.701 436.182C308.701 435.225 308.861 434.277 309.173 433.392C309.484 432.508 309.941 431.705 310.516 431.028C311.092 430.351 311.775 429.815 312.526 429.449C313.278 429.084 314.084 428.896 314.897 428.897H461.874C463.515 428.897 465.09 429.665 466.25 431.031C467.411 432.397 468.063 434.25 468.063 436.182C468.063 438.114 467.411 439.967 466.25 441.333C465.09 442.699 463.515 443.467 461.874 443.467Z" fill="#E6E6E6"/>
<path d="M487.406 468.053H314.897C314.084 468.054 313.278 467.866 312.526 467.5C311.775 467.135 311.092 466.598 310.516 465.922C309.941 465.245 309.484 464.442 309.173 463.558C308.861 462.673 308.701 461.725 308.701 460.768C308.701 459.811 308.861 458.863 309.173 457.978C309.484 457.094 309.941 456.291 310.516 455.614C311.092 454.937 311.775 454.401 312.526 454.035C313.278 453.67 314.084 453.482 314.897 453.483H487.406C488.219 453.482 489.025 453.67 489.777 454.035C490.528 454.401 491.211 454.937 491.787 455.614C492.362 456.291 492.819 457.094 493.13 457.978C493.442 458.863 493.602 459.811 493.602 460.768C493.602 461.725 493.442 462.673 493.13 463.558C492.819 464.442 492.362 465.245 491.787 465.922C491.211 466.598 490.528 467.135 489.777 467.5C489.025 467.866 488.219 468.054 487.406 468.053Z" fill="#E6E6E6"/>
<path d="M281.974 369.032H229.96C229.173 369.031 228.419 368.663 227.862 368.008C227.306 367.353 226.993 366.465 226.992 365.539V311.048C226.993 310.122 227.306 309.234 227.862 308.579C228.419 307.924 229.173 307.556 229.96 307.555H281.974C282.76 307.556 283.515 307.924 284.071 308.579C284.628 309.234 284.941 310.122 284.942 311.048V365.539C284.941 366.465 284.628 367.353 284.071 368.008C283.515 368.663 282.76 369.031 281.974 369.032Z" fill="#E6E6E6"/>
<path d="M281.974 479.214H229.96C229.173 479.213 228.419 478.844 227.862 478.189C227.306 477.535 226.993 476.647 226.992 475.721V421.229C226.993 420.303 227.306 419.415 227.862 418.76C228.419 418.106 229.173 417.737 229.96 417.736H281.974C282.76 417.737 283.515 418.106 284.071 418.76C284.628 419.415 284.941 420.303 284.942 421.229V475.721C284.941 476.647 284.628 477.535 284.071 478.189C283.515 478.844 282.76 479.213 281.974 479.214Z" fill="#E6E6E6"/>
<path d="M462.037 210.631H353.677C352.035 210.631 350.461 209.864 349.3 208.498C348.14 207.132 347.487 205.279 347.487 203.347C347.487 201.415 348.14 199.562 349.3 198.196C350.461 196.829 352.035 196.062 353.677 196.062H462.037C463.678 196.062 465.253 196.829 466.414 198.196C467.574 199.562 468.226 201.415 468.226 203.347C468.226 205.279 467.574 207.132 466.414 208.498C465.253 209.864 463.678 210.631 462.037 210.631Z" fill="#CCCCCC"/>
<path d="M487.569 235.217H353.677C352.864 235.217 352.059 235.029 351.308 234.663C350.557 234.297 349.875 233.76 349.3 233.084C348.726 232.407 348.27 231.604 347.959 230.72C347.648 229.837 347.487 228.889 347.487 227.933C347.487 226.976 347.648 226.029 347.959 225.145C348.27 224.261 348.726 223.458 349.3 222.782C349.875 222.105 350.557 221.569 351.308 221.202C352.059 220.836 352.864 220.648 353.677 220.648H487.569C489.21 220.648 490.785 221.415 491.946 222.782C493.106 224.148 493.758 226.001 493.758 227.933C493.758 229.865 493.106 231.718 491.946 233.084C490.785 234.45 489.21 235.217 487.569 235.217Z" fill="#CCCCCC"/>
<path d="M329.695 265.013H229.797C229.01 265.012 228.256 264.643 227.699 263.988C227.143 263.334 226.83 262.446 226.829 261.52V169.76C226.83 168.834 227.143 167.946 227.699 167.291C228.256 166.636 229.01 166.268 229.797 166.267H329.695C330.482 166.268 331.236 166.636 331.793 167.291C332.349 167.946 332.662 168.834 332.663 169.76V261.52C332.662 262.446 332.349 263.334 331.793 263.988C331.236 264.643 330.482 265.012 329.695 265.013Z" fill="#81A9D0"/>
</svg>
